<mxfile host="app.diagrams.net" agent="Mozilla/5.0 (X11; Linux x86_64) AppleWebKit/537.36 (KHTML, like Gecko) Chrome/126.0.0.0 Safari/537.36" version="24.7.7">
  <diagram name="Page-1" id="D42sEiNMvJRagWhkCeEB">
    <mxGraphModel dx="1674" dy="1578" grid="1" gridSize="10" guides="1" tooltips="1" connect="1" arrows="1" fold="1" page="1" pageScale="1" pageWidth="850" pageHeight="1100" math="0" shadow="0">
      <root>
        <mxCell id="0" />
        <mxCell id="1" parent="0" />
        <mxCell id="m65dPLsB5imrkKqWMonl-2" value="Vehicle" style="swimlane;fontStyle=1;align=center;verticalAlign=top;childLayout=stackLayout;horizontal=1;startSize=26;horizontalStack=0;resizeParent=1;resizeParentMax=0;resizeLast=0;collapsible=1;marginBottom=0;whiteSpace=wrap;html=1;" vertex="1" parent="1">
          <mxGeometry x="-110" y="-130" width="160" height="134" as="geometry" />
        </mxCell>
        <mxCell id="m65dPLsB5imrkKqWMonl-3" value="+ number: String&lt;div&gt;+ ownerName: String&lt;div&gt;+ type: VehicleType&lt;/div&gt;&lt;div&gt;+ colour: String&lt;div&gt;&lt;br&gt;&lt;/div&gt;&lt;div&gt;&lt;br&gt;&lt;/div&gt;&lt;/div&gt;&lt;/div&gt;" style="text;strokeColor=none;fillColor=none;align=left;verticalAlign=top;spacingLeft=4;spacingRight=4;overflow=hidden;rotatable=0;points=[[0,0.5],[1,0.5]];portConstraint=eastwest;whiteSpace=wrap;html=1;" vertex="1" parent="m65dPLsB5imrkKqWMonl-2">
          <mxGeometry y="26" width="160" height="74" as="geometry" />
        </mxCell>
        <mxCell id="m65dPLsB5imrkKqWMonl-4" value="" style="line;strokeWidth=1;fillColor=none;align=left;verticalAlign=middle;spacingTop=-1;spacingLeft=3;spacingRight=3;rotatable=0;labelPosition=right;points=[];portConstraint=eastwest;strokeColor=inherit;" vertex="1" parent="m65dPLsB5imrkKqWMonl-2">
          <mxGeometry y="100" width="160" height="8" as="geometry" />
        </mxCell>
        <mxCell id="m65dPLsB5imrkKqWMonl-5" value="+ method(type): type" style="text;strokeColor=none;fillColor=none;align=left;verticalAlign=top;spacingLeft=4;spacingRight=4;overflow=hidden;rotatable=0;points=[[0,0.5],[1,0.5]];portConstraint=eastwest;whiteSpace=wrap;html=1;" vertex="1" parent="m65dPLsB5imrkKqWMonl-2">
          <mxGeometry y="108" width="160" height="26" as="geometry" />
        </mxCell>
        <mxCell id="m65dPLsB5imrkKqWMonl-9" value="Slot" style="swimlane;fontStyle=1;align=center;verticalAlign=top;childLayout=stackLayout;horizontal=1;startSize=26;horizontalStack=0;resizeParent=1;resizeParentMax=0;resizeLast=0;collapsible=1;marginBottom=0;whiteSpace=wrap;html=1;" vertex="1" parent="1">
          <mxGeometry x="220" y="-63" width="160" height="146" as="geometry" />
        </mxCell>
        <mxCell id="m65dPLsB5imrkKqWMonl-10" value="+ id: String&lt;div&gt;+ type: VehicleType&lt;br&gt;&lt;/div&gt;&lt;div&gt;+ vehicle: Vehicle&lt;br&gt;&lt;/div&gt;&lt;div&gt;+ price: int&lt;/div&gt;&lt;div&gt;+ isFree: boolean&lt;/div&gt;" style="text;strokeColor=none;fillColor=none;align=left;verticalAlign=top;spacingLeft=4;spacingRight=4;overflow=hidden;rotatable=0;points=[[0,0.5],[1,0.5]];portConstraint=eastwest;whiteSpace=wrap;html=1;" vertex="1" parent="m65dPLsB5imrkKqWMonl-9">
          <mxGeometry y="26" width="160" height="94" as="geometry" />
        </mxCell>
        <mxCell id="m65dPLsB5imrkKqWMonl-19" value="+ getSlotPrice(): int" style="text;strokeColor=none;fillColor=none;align=left;verticalAlign=top;spacingLeft=4;spacingRight=4;overflow=hidden;rotatable=0;points=[[0,0.5],[1,0.5]];portConstraint=eastwest;whiteSpace=wrap;html=1;" vertex="1" parent="m65dPLsB5imrkKqWMonl-9">
          <mxGeometry y="120" width="160" height="26" as="geometry" />
        </mxCell>
        <mxCell id="m65dPLsB5imrkKqWMonl-13" value="Ticket" style="swimlane;fontStyle=1;align=center;verticalAlign=top;childLayout=stackLayout;horizontal=1;startSize=26;horizontalStack=0;resizeParent=1;resizeParentMax=0;resizeLast=0;collapsible=1;marginBottom=0;whiteSpace=wrap;html=1;" vertex="1" parent="1">
          <mxGeometry x="30" y="-460" width="160" height="114" as="geometry" />
        </mxCell>
        <mxCell id="m65dPLsB5imrkKqWMonl-14" value="+ slotId: String&lt;div&gt;+ vehicleNumber: String&lt;br&gt;&lt;/div&gt;&lt;div&gt;+ inTime: Datetime&lt;/div&gt;" style="text;strokeColor=none;fillColor=none;align=left;verticalAlign=top;spacingLeft=4;spacingRight=4;overflow=hidden;rotatable=0;points=[[0,0.5],[1,0.5]];portConstraint=eastwest;whiteSpace=wrap;html=1;" vertex="1" parent="m65dPLsB5imrkKqWMonl-13">
          <mxGeometry y="26" width="160" height="54" as="geometry" />
        </mxCell>
        <mxCell id="m65dPLsB5imrkKqWMonl-15" value="" style="line;strokeWidth=1;fillColor=none;align=left;verticalAlign=middle;spacingTop=-1;spacingLeft=3;spacingRight=3;rotatable=0;labelPosition=right;points=[];portConstraint=eastwest;strokeColor=inherit;" vertex="1" parent="m65dPLsB5imrkKqWMonl-13">
          <mxGeometry y="80" width="160" height="8" as="geometry" />
        </mxCell>
        <mxCell id="m65dPLsB5imrkKqWMonl-16" value="+ method(type): type" style="text;strokeColor=none;fillColor=none;align=left;verticalAlign=top;spacingLeft=4;spacingRight=4;overflow=hidden;rotatable=0;points=[[0,0.5],[1,0.5]];portConstraint=eastwest;whiteSpace=wrap;html=1;" vertex="1" parent="m65dPLsB5imrkKqWMonl-13">
          <mxGeometry y="88" width="160" height="26" as="geometry" />
        </mxCell>
        <mxCell id="m65dPLsB5imrkKqWMonl-20" value="ParkingSlotManager" style="swimlane;fontStyle=1;align=center;verticalAlign=top;childLayout=stackLayout;horizontal=1;startSize=26;horizontalStack=0;resizeParent=1;resizeParentMax=0;resizeLast=0;collapsible=1;marginBottom=0;whiteSpace=wrap;html=1;" vertex="1" parent="1">
          <mxGeometry x="220" y="-230" width="160" height="130" as="geometry" />
        </mxCell>
        <mxCell id="m65dPLsB5imrkKqWMonl-21" value="+slotStrategy: SlotStrategy" style="text;strokeColor=none;fillColor=none;align=left;verticalAlign=top;spacingLeft=4;spacingRight=4;overflow=hidden;rotatable=0;points=[[0,0.5],[1,0.5]];portConstraint=eastwest;whiteSpace=wrap;html=1;" vertex="1" parent="m65dPLsB5imrkKqWMonl-20">
          <mxGeometry y="26" width="160" height="26" as="geometry" />
        </mxCell>
        <mxCell id="m65dPLsB5imrkKqWMonl-22" value="" style="line;strokeWidth=1;fillColor=none;align=left;verticalAlign=middle;spacingTop=-1;spacingLeft=3;spacingRight=3;rotatable=0;labelPosition=right;points=[];portConstraint=eastwest;strokeColor=inherit;" vertex="1" parent="m65dPLsB5imrkKqWMonl-20">
          <mxGeometry y="52" width="160" height="8" as="geometry" />
        </mxCell>
        <mxCell id="m65dPLsB5imrkKqWMonl-23" value="&lt;p style=&quot;margin: 0px 0px 0px 4px;&quot;&gt;+ addSlot(size): void&lt;br&gt;+ removeSlot(Slot): void&lt;/p&gt;&lt;p style=&quot;margin: 0px 0px 0px 4px;&quot;&gt;+ getNextSlot(Vehicletype): Slot&lt;/p&gt;" style="text;strokeColor=none;fillColor=none;align=left;verticalAlign=top;spacingLeft=4;spacingRight=4;overflow=hidden;rotatable=0;points=[[0,0.5],[1,0.5]];portConstraint=eastwest;whiteSpace=wrap;html=1;" vertex="1" parent="m65dPLsB5imrkKqWMonl-20">
          <mxGeometry y="60" width="160" height="70" as="geometry" />
        </mxCell>
        <mxCell id="m65dPLsB5imrkKqWMonl-28" value="&lt;p style=&quot;margin:0px;margin-top:4px;text-align:center;&quot;&gt;&lt;i&gt;&amp;lt;&amp;lt;Interface&amp;gt;&amp;gt;&lt;/i&gt;&lt;br&gt;&lt;b&gt;SlotStrategy&lt;/b&gt;&lt;/p&gt;&lt;hr size=&quot;1&quot; style=&quot;border-style:solid;&quot;&gt;&lt;p style=&quot;margin:0px;margin-left:4px;&quot;&gt;&lt;br&gt;&lt;/p&gt;&lt;hr size=&quot;1&quot; style=&quot;border-style:solid;&quot;&gt;&lt;p style=&quot;margin:0px;margin-left:4px;&quot;&gt;+ addSlot(Slot): void&lt;br&gt;+ removeSlot(Slot): void&lt;/p&gt;&lt;p style=&quot;margin:0px;margin-left:4px;&quot;&gt;+ nextSlot(): Slot&lt;/p&gt;" style="verticalAlign=top;align=left;overflow=fill;html=1;whiteSpace=wrap;" vertex="1" parent="1">
          <mxGeometry x="550" y="-230" width="190" height="130" as="geometry" />
        </mxCell>
        <mxCell id="m65dPLsB5imrkKqWMonl-29" value="FirstComeFirstServe" style="swimlane;fontStyle=1;align=center;verticalAlign=top;childLayout=stackLayout;horizontal=1;startSize=26;horizontalStack=0;resizeParent=1;resizeParentMax=0;resizeLast=0;collapsible=1;marginBottom=0;whiteSpace=wrap;html=1;" vertex="1" parent="1">
          <mxGeometry x="660" y="-50" width="160" height="120" as="geometry" />
        </mxCell>
        <mxCell id="m65dPLsB5imrkKqWMonl-30" value="Queue&amp;lt;Slot&amp;gt;" style="text;strokeColor=none;fillColor=none;align=left;verticalAlign=top;spacingLeft=4;spacingRight=4;overflow=hidden;rotatable=0;points=[[0,0.5],[1,0.5]];portConstraint=eastwest;whiteSpace=wrap;html=1;" vertex="1" parent="m65dPLsB5imrkKqWMonl-29">
          <mxGeometry y="26" width="160" height="26" as="geometry" />
        </mxCell>
        <mxCell id="m65dPLsB5imrkKqWMonl-31" value="" style="line;strokeWidth=1;fillColor=none;align=left;verticalAlign=middle;spacingTop=-1;spacingLeft=3;spacingRight=3;rotatable=0;labelPosition=right;points=[];portConstraint=eastwest;strokeColor=inherit;" vertex="1" parent="m65dPLsB5imrkKqWMonl-29">
          <mxGeometry y="52" width="160" height="8" as="geometry" />
        </mxCell>
        <mxCell id="m65dPLsB5imrkKqWMonl-32" value="&lt;p style=&quot;margin: 0px 0px 0px 4px;&quot;&gt;+ addSlot(Slot): void&lt;br&gt;+ removeSlot(Slot): void&lt;/p&gt;&lt;p style=&quot;margin: 0px 0px 0px 4px;&quot;&gt;+ nextSlot(): Slot&lt;/p&gt;" style="text;strokeColor=none;fillColor=none;align=left;verticalAlign=top;spacingLeft=4;spacingRight=4;overflow=hidden;rotatable=0;points=[[0,0.5],[1,0.5]];portConstraint=eastwest;whiteSpace=wrap;html=1;" vertex="1" parent="m65dPLsB5imrkKqWMonl-29">
          <mxGeometry y="60" width="160" height="60" as="geometry" />
        </mxCell>
        <mxCell id="m65dPLsB5imrkKqWMonl-33" value="NaturalOrderSlots" style="swimlane;fontStyle=1;align=center;verticalAlign=top;childLayout=stackLayout;horizontal=1;startSize=26;horizontalStack=0;resizeParent=1;resizeParentMax=0;resizeLast=0;collapsible=1;marginBottom=0;whiteSpace=wrap;html=1;" vertex="1" parent="1">
          <mxGeometry x="480" y="-50" width="160" height="120" as="geometry" />
        </mxCell>
        <mxCell id="m65dPLsB5imrkKqWMonl-34" value="TreeSet&amp;lt;Slot&amp;gt;" style="text;strokeColor=none;fillColor=none;align=left;verticalAlign=top;spacingLeft=4;spacingRight=4;overflow=hidden;rotatable=0;points=[[0,0.5],[1,0.5]];portConstraint=eastwest;whiteSpace=wrap;html=1;" vertex="1" parent="m65dPLsB5imrkKqWMonl-33">
          <mxGeometry y="26" width="160" height="26" as="geometry" />
        </mxCell>
        <mxCell id="m65dPLsB5imrkKqWMonl-35" value="" style="line;strokeWidth=1;fillColor=none;align=left;verticalAlign=middle;spacingTop=-1;spacingLeft=3;spacingRight=3;rotatable=0;labelPosition=right;points=[];portConstraint=eastwest;strokeColor=inherit;" vertex="1" parent="m65dPLsB5imrkKqWMonl-33">
          <mxGeometry y="52" width="160" height="8" as="geometry" />
        </mxCell>
        <mxCell id="m65dPLsB5imrkKqWMonl-36" value="&lt;p style=&quot;margin: 0px 0px 0px 4px;&quot;&gt;+ addSlot(Slot): void&lt;br&gt;+ removeSlot(Slot): void&lt;/p&gt;&lt;p style=&quot;margin: 0px 0px 0px 4px;&quot;&gt;+ nextSlot(): Slot&lt;/p&gt;" style="text;strokeColor=none;fillColor=none;align=left;verticalAlign=top;spacingLeft=4;spacingRight=4;overflow=hidden;rotatable=0;points=[[0,0.5],[1,0.5]];portConstraint=eastwest;whiteSpace=wrap;html=1;" vertex="1" parent="m65dPLsB5imrkKqWMonl-33">
          <mxGeometry y="60" width="160" height="60" as="geometry" />
        </mxCell>
        <mxCell id="m65dPLsB5imrkKqWMonl-39" value="" style="endArrow=block;dashed=1;endFill=0;endSize=12;html=1;rounded=0;exitX=0.191;exitY=0.975;exitDx=0;exitDy=0;exitPerimeter=0;entryX=0.5;entryY=0;entryDx=0;entryDy=0;" edge="1" parent="1" source="m65dPLsB5imrkKqWMonl-28" target="m65dPLsB5imrkKqWMonl-33">
          <mxGeometry width="160" relative="1" as="geometry">
            <mxPoint x="390" y="-20" as="sourcePoint" />
            <mxPoint x="560" y="-60" as="targetPoint" />
          </mxGeometry>
        </mxCell>
        <mxCell id="m65dPLsB5imrkKqWMonl-40" value="" style="endArrow=block;dashed=1;endFill=0;endSize=12;html=1;rounded=0;exitX=0.75;exitY=1;exitDx=0;exitDy=0;entryX=0.438;entryY=0;entryDx=0;entryDy=0;entryPerimeter=0;" edge="1" parent="1" source="m65dPLsB5imrkKqWMonl-28" target="m65dPLsB5imrkKqWMonl-29">
          <mxGeometry width="160" relative="1" as="geometry">
            <mxPoint x="596" y="-93" as="sourcePoint" />
            <mxPoint x="570" y="-40" as="targetPoint" />
          </mxGeometry>
        </mxCell>
        <mxCell id="m65dPLsB5imrkKqWMonl-43" value="1" style="endArrow=open;html=1;endSize=12;startArrow=diamondThin;startSize=14;startFill=1;edgeStyle=orthogonalEdgeStyle;align=left;verticalAlign=bottom;rounded=0;exitX=0;exitY=0.5;exitDx=0;exitDy=0;entryX=1.009;entryY=0.063;entryDx=0;entryDy=0;entryPerimeter=0;" edge="1" parent="1">
          <mxGeometry x="-1" y="3" relative="1" as="geometry">
            <mxPoint x="548.56" y="-164.9" as="sourcePoint" />
            <mxPoint x="380.00000000000006" y="-165.48999999999992" as="targetPoint" />
          </mxGeometry>
        </mxCell>
        <mxCell id="m65dPLsB5imrkKqWMonl-44" value="Relation" style="endArrow=open;html=1;endSize=12;startArrow=diamondThin;startSize=14;startFill=0;edgeStyle=orthogonalEdgeStyle;rounded=0;entryX=-0.001;entryY=0.02;entryDx=0;entryDy=0;entryPerimeter=0;" edge="1" parent="1" source="m65dPLsB5imrkKqWMonl-10" target="m65dPLsB5imrkKqWMonl-36">
          <mxGeometry relative="1" as="geometry">
            <mxPoint x="270" y="-10" as="sourcePoint" />
            <mxPoint x="430" y="-10" as="targetPoint" />
          </mxGeometry>
        </mxCell>
        <mxCell id="m65dPLsB5imrkKqWMonl-45" value="0..n" style="edgeLabel;resizable=0;html=1;align=left;verticalAlign=top;" connectable="0" vertex="1" parent="m65dPLsB5imrkKqWMonl-44">
          <mxGeometry x="-1" relative="1" as="geometry" />
        </mxCell>
        <mxCell id="m65dPLsB5imrkKqWMonl-46" value="1" style="edgeLabel;resizable=0;html=1;align=right;verticalAlign=top;" connectable="0" vertex="1" parent="m65dPLsB5imrkKqWMonl-44">
          <mxGeometry x="1" relative="1" as="geometry" />
        </mxCell>
        <mxCell id="m65dPLsB5imrkKqWMonl-93" style="edgeStyle=orthogonalEdgeStyle;rounded=0;orthogonalLoop=1;jettySize=auto;html=1;exitX=0;exitY=0.25;exitDx=0;exitDy=0;" edge="1" parent="1">
          <mxGeometry relative="1" as="geometry">
            <mxPoint x="-360" y="-68.5" as="targetPoint" />
            <mxPoint x="250" y="176.5" as="sourcePoint" />
            <Array as="points">
              <mxPoint x="250" y="160" />
              <mxPoint x="-359" y="160" />
            </Array>
          </mxGeometry>
        </mxCell>
        <mxCell id="m65dPLsB5imrkKqWMonl-47" value="&lt;p style=&quot;margin:0px;margin-top:4px;text-align:center;&quot;&gt;&lt;i&gt;&amp;lt;&amp;lt;Interface&amp;gt;&amp;gt;&lt;/i&gt;&lt;br&gt;&lt;b&gt;PaymentStrategy&lt;/b&gt;&lt;/p&gt;&lt;hr size=&quot;1&quot; style=&quot;border-style:solid;&quot;&gt;&lt;p style=&quot;margin:0px;margin-left:4px;&quot;&gt;&lt;br&gt;&lt;/p&gt;&lt;hr size=&quot;1&quot; style=&quot;border-style:solid;&quot;&gt;&lt;p style=&quot;margin:0px;margin-left:4px;&quot;&gt;+ pay(int): void&lt;/p&gt;" style="verticalAlign=top;align=left;overflow=fill;html=1;whiteSpace=wrap;" vertex="1" parent="1">
          <mxGeometry x="250" y="160" width="190" height="100" as="geometry" />
        </mxCell>
        <mxCell id="m65dPLsB5imrkKqWMonl-48" value="CreditCardPaymentStrategy" style="swimlane;fontStyle=1;align=center;verticalAlign=top;childLayout=stackLayout;horizontal=1;startSize=26;horizontalStack=0;resizeParent=1;resizeParentMax=0;resizeLast=0;collapsible=1;marginBottom=0;whiteSpace=wrap;html=1;" vertex="1" parent="1">
          <mxGeometry x="110" y="330" width="160" height="124" as="geometry" />
        </mxCell>
        <mxCell id="m65dPLsB5imrkKqWMonl-49" value="+ cardNum: String&lt;div&gt;+ cvv: int&lt;/div&gt;&lt;div&gt;+ expiryDate: Date&lt;div&gt;+ PaymentValidator&lt;/div&gt;&lt;/div&gt;" style="text;strokeColor=none;fillColor=none;align=left;verticalAlign=top;spacingLeft=4;spacingRight=4;overflow=hidden;rotatable=0;points=[[0,0.5],[1,0.5]];portConstraint=eastwest;whiteSpace=wrap;html=1;" vertex="1" parent="m65dPLsB5imrkKqWMonl-48">
          <mxGeometry y="26" width="160" height="64" as="geometry" />
        </mxCell>
        <mxCell id="m65dPLsB5imrkKqWMonl-50" value="" style="line;strokeWidth=1;fillColor=none;align=left;verticalAlign=middle;spacingTop=-1;spacingLeft=3;spacingRight=3;rotatable=0;labelPosition=right;points=[];portConstraint=eastwest;strokeColor=inherit;" vertex="1" parent="m65dPLsB5imrkKqWMonl-48">
          <mxGeometry y="90" width="160" height="8" as="geometry" />
        </mxCell>
        <mxCell id="m65dPLsB5imrkKqWMonl-51" value="+ pay(int): void" style="text;strokeColor=none;fillColor=none;align=left;verticalAlign=top;spacingLeft=4;spacingRight=4;overflow=hidden;rotatable=0;points=[[0,0.5],[1,0.5]];portConstraint=eastwest;whiteSpace=wrap;html=1;" vertex="1" parent="m65dPLsB5imrkKqWMonl-48">
          <mxGeometry y="98" width="160" height="26" as="geometry" />
        </mxCell>
        <mxCell id="m65dPLsB5imrkKqWMonl-52" value="BankPaymentStrategy" style="swimlane;fontStyle=1;align=center;verticalAlign=top;childLayout=stackLayout;horizontal=1;startSize=26;horizontalStack=0;resizeParent=1;resizeParentMax=0;resizeLast=0;collapsible=1;marginBottom=0;whiteSpace=wrap;html=1;" vertex="1" parent="1">
          <mxGeometry x="300" y="330" width="160" height="124" as="geometry" />
        </mxCell>
        <mxCell id="m65dPLsB5imrkKqWMonl-53" value="+ bankName: String&lt;div&gt;+ accoutNum: String&lt;/div&gt;&lt;div&gt;&lt;div&gt;+&amp;nbsp;&lt;span style=&quot;background-color: initial;&quot;&gt;PaymentValidator&lt;/span&gt;&lt;/div&gt;&lt;div&gt;&lt;br&gt;&lt;/div&gt;&lt;/div&gt;" style="text;strokeColor=none;fillColor=none;align=left;verticalAlign=top;spacingLeft=4;spacingRight=4;overflow=hidden;rotatable=0;points=[[0,0.5],[1,0.5]];portConstraint=eastwest;whiteSpace=wrap;html=1;" vertex="1" parent="m65dPLsB5imrkKqWMonl-52">
          <mxGeometry y="26" width="160" height="64" as="geometry" />
        </mxCell>
        <mxCell id="m65dPLsB5imrkKqWMonl-54" value="" style="line;strokeWidth=1;fillColor=none;align=left;verticalAlign=middle;spacingTop=-1;spacingLeft=3;spacingRight=3;rotatable=0;labelPosition=right;points=[];portConstraint=eastwest;strokeColor=inherit;" vertex="1" parent="m65dPLsB5imrkKqWMonl-52">
          <mxGeometry y="90" width="160" height="8" as="geometry" />
        </mxCell>
        <mxCell id="m65dPLsB5imrkKqWMonl-55" value="+ pay(int): void" style="text;strokeColor=none;fillColor=none;align=left;verticalAlign=top;spacingLeft=4;spacingRight=4;overflow=hidden;rotatable=0;points=[[0,0.5],[1,0.5]];portConstraint=eastwest;whiteSpace=wrap;html=1;" vertex="1" parent="m65dPLsB5imrkKqWMonl-52">
          <mxGeometry y="98" width="160" height="26" as="geometry" />
        </mxCell>
        <mxCell id="m65dPLsB5imrkKqWMonl-56" value="" style="endArrow=block;dashed=1;endFill=0;endSize=12;html=1;rounded=0;exitX=-0.009;exitY=0.64;exitDx=0;exitDy=0;exitPerimeter=0;entryX=0.599;entryY=-0.029;entryDx=0;entryDy=0;entryPerimeter=0;" edge="1" parent="1" source="m65dPLsB5imrkKqWMonl-47" target="m65dPLsB5imrkKqWMonl-48">
          <mxGeometry width="160" relative="1" as="geometry">
            <mxPoint x="340" y="330" as="sourcePoint" />
            <mxPoint x="500" y="330" as="targetPoint" />
            <Array as="points">
              <mxPoint x="210" y="224" />
            </Array>
          </mxGeometry>
        </mxCell>
        <mxCell id="m65dPLsB5imrkKqWMonl-57" value="" style="endArrow=block;dashed=1;endFill=0;endSize=12;html=1;rounded=0;exitX=0.5;exitY=1;exitDx=0;exitDy=0;entryX=0.296;entryY=0.023;entryDx=0;entryDy=0;entryPerimeter=0;" edge="1" parent="1" source="m65dPLsB5imrkKqWMonl-47" target="m65dPLsB5imrkKqWMonl-52">
          <mxGeometry width="160" relative="1" as="geometry">
            <mxPoint x="258" y="234" as="sourcePoint" />
            <mxPoint x="216" y="336" as="targetPoint" />
            <Array as="points" />
          </mxGeometry>
        </mxCell>
        <mxCell id="m65dPLsB5imrkKqWMonl-58" value="" style="endArrow=block;dashed=1;endFill=0;endSize=12;html=1;rounded=0;exitX=1;exitY=0.5;exitDx=0;exitDy=0;entryX=0.101;entryY=-0.023;entryDx=0;entryDy=0;entryPerimeter=0;" edge="1" parent="1" source="m65dPLsB5imrkKqWMonl-47" target="m65dPLsB5imrkKqWMonl-59">
          <mxGeometry width="160" relative="1" as="geometry">
            <mxPoint x="355" y="270" as="sourcePoint" />
            <mxPoint x="490" y="320" as="targetPoint" />
            <Array as="points">
              <mxPoint x="470" y="210" />
            </Array>
          </mxGeometry>
        </mxCell>
        <mxCell id="m65dPLsB5imrkKqWMonl-59" value="UPIPaymentStrategy" style="swimlane;fontStyle=1;align=center;verticalAlign=top;childLayout=stackLayout;horizontal=1;startSize=26;horizontalStack=0;resizeParent=1;resizeParentMax=0;resizeLast=0;collapsible=1;marginBottom=0;whiteSpace=wrap;html=1;" vertex="1" parent="1">
          <mxGeometry x="480" y="330" width="160" height="124" as="geometry" />
        </mxCell>
        <mxCell id="m65dPLsB5imrkKqWMonl-60" value="+ UPIId: String&lt;div&gt;+ phone: String&lt;/div&gt;&lt;div&gt;&lt;div&gt;+ PaymentValidator&lt;br&gt;&lt;/div&gt;&lt;div&gt;&lt;br&gt;&lt;/div&gt;&lt;/div&gt;" style="text;strokeColor=none;fillColor=none;align=left;verticalAlign=top;spacingLeft=4;spacingRight=4;overflow=hidden;rotatable=0;points=[[0,0.5],[1,0.5]];portConstraint=eastwest;whiteSpace=wrap;html=1;" vertex="1" parent="m65dPLsB5imrkKqWMonl-59">
          <mxGeometry y="26" width="160" height="64" as="geometry" />
        </mxCell>
        <mxCell id="m65dPLsB5imrkKqWMonl-61" value="" style="line;strokeWidth=1;fillColor=none;align=left;verticalAlign=middle;spacingTop=-1;spacingLeft=3;spacingRight=3;rotatable=0;labelPosition=right;points=[];portConstraint=eastwest;strokeColor=inherit;" vertex="1" parent="m65dPLsB5imrkKqWMonl-59">
          <mxGeometry y="90" width="160" height="8" as="geometry" />
        </mxCell>
        <mxCell id="m65dPLsB5imrkKqWMonl-62" value="+ pay(int): void" style="text;strokeColor=none;fillColor=none;align=left;verticalAlign=top;spacingLeft=4;spacingRight=4;overflow=hidden;rotatable=0;points=[[0,0.5],[1,0.5]];portConstraint=eastwest;whiteSpace=wrap;html=1;" vertex="1" parent="m65dPLsB5imrkKqWMonl-59">
          <mxGeometry y="98" width="160" height="26" as="geometry" />
        </mxCell>
        <mxCell id="m65dPLsB5imrkKqWMonl-64" value="PaymentContext" style="swimlane;fontStyle=1;align=center;verticalAlign=top;childLayout=stackLayout;horizontal=1;startSize=26;horizontalStack=0;resizeParent=1;resizeParentMax=0;resizeLast=0;collapsible=1;marginBottom=0;whiteSpace=wrap;html=1;" vertex="1" parent="1">
          <mxGeometry x="-420" y="202" width="160" height="88" as="geometry" />
        </mxCell>
        <mxCell id="m65dPLsB5imrkKqWMonl-65" value="+ currentDate: datetime&lt;div&gt;+ paymentInfo: String&lt;/div&gt;" style="text;strokeColor=none;fillColor=none;align=left;verticalAlign=top;spacingLeft=4;spacingRight=4;overflow=hidden;rotatable=0;points=[[0,0.5],[1,0.5]];portConstraint=eastwest;whiteSpace=wrap;html=1;" vertex="1" parent="m65dPLsB5imrkKqWMonl-64">
          <mxGeometry y="26" width="160" height="54" as="geometry" />
        </mxCell>
        <mxCell id="m65dPLsB5imrkKqWMonl-66" value="" style="line;strokeWidth=1;fillColor=none;align=left;verticalAlign=middle;spacingTop=-1;spacingLeft=3;spacingRight=3;rotatable=0;labelPosition=right;points=[];portConstraint=eastwest;strokeColor=inherit;" vertex="1" parent="m65dPLsB5imrkKqWMonl-64">
          <mxGeometry y="80" width="160" height="8" as="geometry" />
        </mxCell>
        <mxCell id="m65dPLsB5imrkKqWMonl-68" value="&lt;p style=&quot;margin:0px;margin-top:4px;text-align:center;&quot;&gt;&lt;i&gt;&amp;lt;&amp;lt;Interface&amp;gt;&amp;gt;&lt;/i&gt;&lt;br&gt;&lt;b&gt;PaymentValidatorStrategy&lt;/b&gt;&lt;/p&gt;&lt;hr size=&quot;1&quot; style=&quot;border-style:solid;&quot;&gt;&lt;p style=&quot;margin:0px;margin-left:4px;&quot;&gt;&lt;br&gt;&lt;/p&gt;&lt;hr size=&quot;1&quot; style=&quot;border-style:solid;&quot;&gt;&lt;p style=&quot;margin:0px;margin-left:4px;&quot;&gt;+ validate(PaymentContext)&lt;/p&gt;" style="verticalAlign=top;align=left;overflow=fill;html=1;whiteSpace=wrap;" vertex="1" parent="1">
          <mxGeometry x="-160" y="180" width="190" height="100" as="geometry" />
        </mxCell>
        <mxCell id="m65dPLsB5imrkKqWMonl-70" value="Use" style="endArrow=open;endSize=12;dashed=1;html=1;rounded=0;" edge="1" parent="1">
          <mxGeometry width="160" relative="1" as="geometry">
            <mxPoint x="-260" y="245.5" as="sourcePoint" />
            <mxPoint x="-160" y="246" as="targetPoint" />
          </mxGeometry>
        </mxCell>
        <mxCell id="m65dPLsB5imrkKqWMonl-71" value="CreditCardPaymentValidator" style="swimlane;fontStyle=1;align=center;verticalAlign=top;childLayout=stackLayout;horizontal=1;startSize=26;horizontalStack=0;resizeParent=1;resizeParentMax=0;resizeLast=0;collapsible=1;marginBottom=0;whiteSpace=wrap;html=1;" vertex="1" parent="1">
          <mxGeometry x="-410" y="330" width="160" height="60" as="geometry" />
        </mxCell>
        <mxCell id="m65dPLsB5imrkKqWMonl-73" value="" style="line;strokeWidth=1;fillColor=none;align=left;verticalAlign=middle;spacingTop=-1;spacingLeft=3;spacingRight=3;rotatable=0;labelPosition=right;points=[];portConstraint=eastwest;strokeColor=inherit;" vertex="1" parent="m65dPLsB5imrkKqWMonl-71">
          <mxGeometry y="26" width="160" height="8" as="geometry" />
        </mxCell>
        <mxCell id="m65dPLsB5imrkKqWMonl-74" value="+ validate(PaymentContext)" style="text;strokeColor=none;fillColor=none;align=left;verticalAlign=top;spacingLeft=4;spacingRight=4;overflow=hidden;rotatable=0;points=[[0,0.5],[1,0.5]];portConstraint=eastwest;whiteSpace=wrap;html=1;" vertex="1" parent="m65dPLsB5imrkKqWMonl-71">
          <mxGeometry y="34" width="160" height="26" as="geometry" />
        </mxCell>
        <mxCell id="m65dPLsB5imrkKqWMonl-75" value="BankPaymentValidator" style="swimlane;fontStyle=1;align=center;verticalAlign=top;childLayout=stackLayout;horizontal=1;startSize=26;horizontalStack=0;resizeParent=1;resizeParentMax=0;resizeLast=0;collapsible=1;marginBottom=0;whiteSpace=wrap;html=1;" vertex="1" parent="1">
          <mxGeometry x="-240" y="330" width="160" height="60" as="geometry" />
        </mxCell>
        <mxCell id="m65dPLsB5imrkKqWMonl-76" value="" style="line;strokeWidth=1;fillColor=none;align=left;verticalAlign=middle;spacingTop=-1;spacingLeft=3;spacingRight=3;rotatable=0;labelPosition=right;points=[];portConstraint=eastwest;strokeColor=inherit;" vertex="1" parent="m65dPLsB5imrkKqWMonl-75">
          <mxGeometry y="26" width="160" height="8" as="geometry" />
        </mxCell>
        <mxCell id="m65dPLsB5imrkKqWMonl-77" value="+ validate(PaymentContext)" style="text;strokeColor=none;fillColor=none;align=left;verticalAlign=top;spacingLeft=4;spacingRight=4;overflow=hidden;rotatable=0;points=[[0,0.5],[1,0.5]];portConstraint=eastwest;whiteSpace=wrap;html=1;" vertex="1" parent="m65dPLsB5imrkKqWMonl-75">
          <mxGeometry y="34" width="160" height="26" as="geometry" />
        </mxCell>
        <mxCell id="m65dPLsB5imrkKqWMonl-78" value="UPIPaymentValidator" style="swimlane;fontStyle=1;align=center;verticalAlign=top;childLayout=stackLayout;horizontal=1;startSize=26;horizontalStack=0;resizeParent=1;resizeParentMax=0;resizeLast=0;collapsible=1;marginBottom=0;whiteSpace=wrap;html=1;" vertex="1" parent="1">
          <mxGeometry x="-60" y="330" width="160" height="60" as="geometry" />
        </mxCell>
        <mxCell id="m65dPLsB5imrkKqWMonl-79" value="" style="line;strokeWidth=1;fillColor=none;align=left;verticalAlign=middle;spacingTop=-1;spacingLeft=3;spacingRight=3;rotatable=0;labelPosition=right;points=[];portConstraint=eastwest;strokeColor=inherit;" vertex="1" parent="m65dPLsB5imrkKqWMonl-78">
          <mxGeometry y="26" width="160" height="8" as="geometry" />
        </mxCell>
        <mxCell id="m65dPLsB5imrkKqWMonl-80" value="+ validate(PaymentContext)" style="text;strokeColor=none;fillColor=none;align=left;verticalAlign=top;spacingLeft=4;spacingRight=4;overflow=hidden;rotatable=0;points=[[0,0.5],[1,0.5]];portConstraint=eastwest;whiteSpace=wrap;html=1;" vertex="1" parent="m65dPLsB5imrkKqWMonl-78">
          <mxGeometry y="34" width="160" height="26" as="geometry" />
        </mxCell>
        <mxCell id="m65dPLsB5imrkKqWMonl-82" value="" style="endArrow=block;dashed=1;endFill=0;endSize=12;html=1;rounded=0;exitX=0.111;exitY=1.008;exitDx=0;exitDy=0;exitPerimeter=0;entryX=0.688;entryY=0;entryDx=0;entryDy=0;entryPerimeter=0;" edge="1" parent="1" source="m65dPLsB5imrkKqWMonl-68" target="m65dPLsB5imrkKqWMonl-71">
          <mxGeometry width="160" relative="1" as="geometry">
            <mxPoint x="10" y="340" as="sourcePoint" />
            <mxPoint x="170" y="340" as="targetPoint" />
            <Array as="points">
              <mxPoint x="-220" y="280" />
            </Array>
          </mxGeometry>
        </mxCell>
        <mxCell id="m65dPLsB5imrkKqWMonl-83" value="" style="endArrow=block;dashed=1;endFill=0;endSize=12;html=1;rounded=0;exitX=0.308;exitY=0.992;exitDx=0;exitDy=0;exitPerimeter=0;" edge="1" parent="1" source="m65dPLsB5imrkKqWMonl-68" target="m65dPLsB5imrkKqWMonl-75">
          <mxGeometry width="160" relative="1" as="geometry">
            <mxPoint x="-129" y="291" as="sourcePoint" />
            <mxPoint x="-290" y="340" as="targetPoint" />
            <Array as="points">
              <mxPoint x="-160" y="279" />
            </Array>
          </mxGeometry>
        </mxCell>
        <mxCell id="m65dPLsB5imrkKqWMonl-84" value="" style="endArrow=block;dashed=1;endFill=0;endSize=12;html=1;rounded=0;exitX=0.658;exitY=0.96;exitDx=0;exitDy=0;exitPerimeter=0;entryX=0.171;entryY=0.02;entryDx=0;entryDy=0;entryPerimeter=0;" edge="1" parent="1" source="m65dPLsB5imrkKqWMonl-68" target="m65dPLsB5imrkKqWMonl-78">
          <mxGeometry width="160" relative="1" as="geometry">
            <mxPoint x="-119" y="301" as="sourcePoint" />
            <mxPoint x="-280" y="350" as="targetPoint" />
            <Array as="points" />
          </mxGeometry>
        </mxCell>
        <mxCell id="m65dPLsB5imrkKqWMonl-85" value="Use" style="endArrow=open;endSize=12;dashed=1;html=1;rounded=0;exitX=0.999;exitY=0.32;exitDx=0;exitDy=0;exitPerimeter=0;entryX=0;entryY=0.5;entryDx=0;entryDy=0;" edge="1" parent="1" source="m65dPLsB5imrkKqWMonl-68" target="m65dPLsB5imrkKqWMonl-47">
          <mxGeometry width="160" relative="1" as="geometry">
            <mxPoint x="10" y="340" as="sourcePoint" />
            <mxPoint x="170" y="340" as="targetPoint" />
          </mxGeometry>
        </mxCell>
        <mxCell id="m65dPLsB5imrkKqWMonl-86" value="&lt;p style=&quot;margin:0px;margin-top:4px;text-align:center;&quot;&gt;&lt;b&gt;ParkingLot - Singleton&lt;/b&gt;&lt;/p&gt;&lt;hr size=&quot;1&quot; style=&quot;border-style:solid;&quot;&gt;&lt;p style=&quot;margin:0px;margin-left:4px;&quot;&gt;+ capacity: int&lt;/p&gt;&lt;p style=&quot;margin:0px;margin-left:4px;&quot;&gt;+ Map&amp;lt;String,Slot&amp;gt;&lt;/p&gt;&lt;p style=&quot;margin:0px;margin-left:4px;&quot;&gt;+INSTANCE&lt;/p&gt;&lt;hr size=&quot;1&quot; style=&quot;border-style:solid;&quot;&gt;&lt;p style=&quot;margin:0px;margin-left:4px;&quot;&gt;+ park(Vehicle,Slot slot): Ticket&lt;/p&gt;&lt;p style=&quot;margin:0px;margin-left:4px;&quot;&gt;+ unPark(Ticket): Vehicle&lt;/p&gt;&lt;p style=&quot;margin:0px;margin-left:4px;&quot;&gt;+ getParkingLot():ParkingLot&lt;/p&gt;" style="verticalAlign=top;align=left;overflow=fill;html=1;whiteSpace=wrap;" vertex="1" parent="1">
          <mxGeometry x="-170" y="-310" width="190" height="130" as="geometry" />
        </mxCell>
        <mxCell id="m65dPLsB5imrkKqWMonl-87" value="&lt;p style=&quot;margin:0px;margin-top:4px;text-align:center;&quot;&gt;&lt;b&gt;ParkingLotService&lt;/b&gt;&lt;/p&gt;&lt;hr size=&quot;1&quot; style=&quot;border-style:solid;&quot;&gt;&lt;p style=&quot;margin:0px;margin-left:4px;&quot;&gt;+ ParkingSlotManager&lt;/p&gt;&lt;p style=&quot;margin:0px;margin-left:4px;&quot;&gt;+ PaymentStrategy&lt;/p&gt;&lt;p style=&quot;margin:0px;margin-left:4px;&quot;&gt;+ ParkingLot&lt;/p&gt;&lt;hr size=&quot;1&quot; style=&quot;border-style:solid;&quot;&gt;&lt;p style=&quot;margin:0px;margin-left:4px;&quot;&gt;+ createParkingLot(ParkingLot,SlotStrategy)&lt;/p&gt;&lt;p style=&quot;margin:0px;margin-left:4px;&quot;&gt;+ park(Vehicle)&lt;/p&gt;&lt;p style=&quot;margin:0px;margin-left:4px;&quot;&gt;+ unPark(Vehicle)&lt;/p&gt;&lt;p style=&quot;margin:0px;margin-left:4px;&quot;&gt;+ getFreeSlots()&lt;/p&gt;&lt;p style=&quot;margin:0px;margin-left:4px;&quot;&gt;+ getOccupiedSlot()&lt;/p&gt;&lt;p style=&quot;margin:0px;margin-left:4px;&quot;&gt;+ getSlotByCar(Vehicle)&lt;/p&gt;" style="verticalAlign=top;align=left;overflow=fill;html=1;whiteSpace=wrap;" vertex="1" parent="1">
          <mxGeometry x="-640" y="-231.5" width="300" height="163" as="geometry" />
        </mxCell>
        <mxCell id="m65dPLsB5imrkKqWMonl-89" value="1" style="endArrow=open;html=1;endSize=12;startArrow=diamondThin;startSize=14;startFill=1;edgeStyle=orthogonalEdgeStyle;align=left;verticalAlign=bottom;rounded=0;exitX=0;exitY=0.5;exitDx=0;exitDy=0;entryX=0.993;entryY=0.291;entryDx=0;entryDy=0;entryPerimeter=0;" edge="1" parent="1" source="m65dPLsB5imrkKqWMonl-86" target="m65dPLsB5imrkKqWMonl-87">
          <mxGeometry x="-1" y="3" relative="1" as="geometry">
            <mxPoint x="-101.44000000000005" y="-179.95000000000002" as="sourcePoint" />
            <mxPoint x="-269.99999999999994" y="-180.53999999999994" as="targetPoint" />
            <Array as="points">
              <mxPoint x="-320" y="-240" />
              <mxPoint x="-320" y="-184" />
            </Array>
          </mxGeometry>
        </mxCell>
        <mxCell id="m65dPLsB5imrkKqWMonl-90" value="1" style="endArrow=open;html=1;endSize=12;startArrow=diamondThin;startSize=14;startFill=1;edgeStyle=orthogonalEdgeStyle;align=left;verticalAlign=bottom;rounded=0;exitX=0.006;exitY=0.063;exitDx=0;exitDy=0;entryX=0.993;entryY=0.291;entryDx=0;entryDy=0;entryPerimeter=0;exitPerimeter=0;" edge="1" parent="1" source="m65dPLsB5imrkKqWMonl-23">
          <mxGeometry x="-1" y="3" relative="1" as="geometry">
            <mxPoint x="-160" y="-230" as="sourcePoint" />
            <mxPoint x="-332" y="-174" as="targetPoint" />
            <Array as="points">
              <mxPoint x="-160" y="-166" />
              <mxPoint x="-160" y="-140" />
              <mxPoint x="-310" y="-140" />
              <mxPoint x="-310" y="-174" />
            </Array>
          </mxGeometry>
        </mxCell>
        <mxCell id="m65dPLsB5imrkKqWMonl-96" value="has-a&lt;div&gt;&lt;br&gt;&lt;/div&gt;" style="edgeLabel;html=1;align=center;verticalAlign=middle;resizable=0;points=[];" vertex="1" connectable="0" parent="m65dPLsB5imrkKqWMonl-90">
          <mxGeometry x="0.1015" relative="1" as="geometry">
            <mxPoint as="offset" />
          </mxGeometry>
        </mxCell>
        <mxCell id="m65dPLsB5imrkKqWMonl-91" value="&lt;font style=&quot;font-size: 16px;&quot;&gt;This here will return me all the slots&lt;/font&gt;" style="text;html=1;align=center;verticalAlign=middle;resizable=0;points=[];autosize=1;strokeColor=none;fillColor=none;" vertex="1" parent="1">
          <mxGeometry x="330" y="-340" width="270" height="30" as="geometry" />
        </mxCell>
        <mxCell id="m65dPLsB5imrkKqWMonl-92" value="&lt;font style=&quot;font-size: 16px;&quot;&gt;Here Map of slots means from all the slots what all slots parkinglot has&lt;/font&gt;" style="text;html=1;align=center;verticalAlign=middle;resizable=0;points=[];autosize=1;strokeColor=none;fillColor=none;" vertex="1" parent="1">
          <mxGeometry x="-350" y="-340" width="520" height="30" as="geometry" />
        </mxCell>
        <mxCell id="m65dPLsB5imrkKqWMonl-94" value="has-a" style="text;html=1;align=center;verticalAlign=middle;resizable=0;points=[];autosize=1;strokeColor=none;fillColor=none;" vertex="1" parent="1">
          <mxGeometry x="-165" y="138" width="50" height="30" as="geometry" />
        </mxCell>
        <mxCell id="m65dPLsB5imrkKqWMonl-95" value="has-a" style="text;html=1;align=center;verticalAlign=middle;resizable=0;points=[];autosize=1;strokeColor=none;fillColor=none;" vertex="1" parent="1">
          <mxGeometry x="-285" y="-262" width="50" height="30" as="geometry" />
        </mxCell>
        <mxCell id="m65dPLsB5imrkKqWMonl-97" value="Use" style="endArrow=open;endSize=12;dashed=1;html=1;rounded=0;entryX=-0.009;entryY=0.916;entryDx=0;entryDy=0;entryPerimeter=0;exitX=0;exitY=0.5;exitDx=0;exitDy=0;" edge="1" parent="1" source="m65dPLsB5imrkKqWMonl-14" target="m65dPLsB5imrkKqWMonl-86">
          <mxGeometry width="160" relative="1" as="geometry">
            <mxPoint x="-260" y="-60" as="sourcePoint" />
            <mxPoint x="-100" y="-60" as="targetPoint" />
            <Array as="points">
              <mxPoint x="-170" y="-407" />
            </Array>
          </mxGeometry>
        </mxCell>
        <mxCell id="m65dPLsB5imrkKqWMonl-98" value="Use" style="endArrow=open;endSize=12;dashed=1;html=1;rounded=0;entryX=1.011;entryY=0.645;entryDx=0;entryDy=0;entryPerimeter=0;exitX=0.014;exitY=0.063;exitDx=0;exitDy=0;exitPerimeter=0;" edge="1" parent="1" source="m65dPLsB5imrkKqWMonl-2" target="m65dPLsB5imrkKqWMonl-87">
          <mxGeometry width="160" relative="1" as="geometry">
            <mxPoint x="-60" y="-130" as="sourcePoint" />
            <mxPoint x="100" y="-130" as="targetPoint" />
          </mxGeometry>
        </mxCell>
        <mxCell id="m65dPLsB5imrkKqWMonl-99" value="Use" style="endArrow=open;endSize=12;dashed=1;html=1;rounded=0;entryX=1.009;entryY=0.659;entryDx=0;entryDy=0;entryPerimeter=0;exitX=-0.014;exitY=0.36;exitDx=0;exitDy=0;exitPerimeter=0;" edge="1" parent="1" source="m65dPLsB5imrkKqWMonl-10" target="m65dPLsB5imrkKqWMonl-3">
          <mxGeometry width="160" relative="1" as="geometry">
            <mxPoint x="-98" y="-112" as="sourcePoint" />
            <mxPoint x="-327" y="-116" as="targetPoint" />
          </mxGeometry>
        </mxCell>
      </root>
    </mxGraphModel>
  </diagram>
</mxfile>
